<svg xmlns="http://www.w3.org/2000/svg" xmlns:xlink="http://www.w3.org/1999/xlink" viewBox="0 0 24 30" version="1.1" x="0px" y="0px">
    <title>bee</title>
    <g stroke="none" stroke-width="1" fill="none" fill-rule="evenodd">
        <g fill="#5F6362">
            <path d="M12.2491187,18.3979103 C12.2690104,18.3993657 12.2907646,18.4009575 12.3148308,18.4027185 C12.5623122,18.4207042 12.6606684,18.4277574 12.803655,18.4376987 C13.0791323,18.4568517 13.2869243,18.6956967 13.2677714,18.9711741 C13.2486185,19.2466514 13.0097734,19.4544434 12.734296,19.4352905 C12.5899886,19.4252573 12.490624,19.4181318 12.2420991,19.40007 C11.9911554,19.3817081 11.9911554,19.3817081 11.7353933,19.3630462 C11.68482,19.3593733 11.6365518,19.3482999 11.5915711,19.3309624 C11.4173192,19.4494426 11.1797654,19.4486021 11.0041865,19.3125507 C10.785906,19.143411 10.7460696,18.8293448 10.9152093,18.6110644 C11.0560783,18.4292683 11.183131,18.24229 11.3025025,18.040181 C11.3425736,17.971956 11.3802333,17.903922 11.4155037,17.8360924 C11.5429003,17.591093 11.8447869,17.495757 12.0897864,17.6231536 C12.3347858,17.7505502 12.4301218,18.0524368 12.3027252,18.2974362 C12.2853144,18.3309194 12.2674591,18.3643882 12.2491187,18.3979103 Z M20.3856584,1.67419071 C19.5459514,1.58396526 18.9174226,1.91658743 18.5346967,2.54551185 C18.4339351,2.71109103 18.3618696,2.87475697 18.3121158,3.0254955 C17.8731947,3.13514606 17.3408736,3.33941402 16.79118,3.67235029 L13.5934312,5.2246261 C13.5014434,5.27451498 13.3879652,5.34199008 13.2445341,5.43570916 C13.0070777,5.59086505 12.7695653,5.76560949 12.5459367,5.9577526 C11.5990889,6.77129047 11.1415578,7.66290694 11.6028423,8.58096278 C11.6787767,8.73208871 11.7793329,8.87655441 11.9039387,9.01400952 C12.3881728,9.39474956 12.8625312,9.48878785 13.3446166,9.36303762 C13.656536,9.2816746 13.961525,9.11429663 14.2622207,8.87012374 C14.2790331,9.13542812 14.3090336,9.40945939 14.3527245,9.69230633 L14.3953812,9.83083382 C15.052994,11.2126914 17.4749267,11.5957455 18.743241,10.7805917 C18.9307156,11.2666539 19.3023055,11.6697775 19.8796354,11.9601434 C21.3766033,12.4882571 22.1874265,11.7463892 22.3475208,10.4176621 C22.3935963,10.035251 22.3855283,9.63658961 22.3448791,9.25539859 C22.3321452,9.13598538 22.3191015,9.04514639 22.3096454,8.9907034 L21.6186799,6.00187747 C21.6272114,5.9661806 21.6356636,5.93022068 21.6440372,5.89399374 L21.6469614,5.68228595 C21.6321914,5.60924771 21.6168052,5.52995306 21.5874711,5.37818365 C21.5591888,5.23341231 21.5281551,5.09731993 21.4932596,4.96922418 C22.2902103,3.72070575 22.4223764,2.94677483 21.7563483,2.28663927 C22.0060366,2.19329185 22.275292,2.18630101 22.5686928,2.29546078 C22.8275032,2.39175115 23.1153691,2.26000272 23.2116595,2.00119241 C23.3079499,1.7423821 23.1762014,1.45451612 22.9173911,1.35822575 C22.3532181,1.14832518 21.8194472,1.17833724 21.3430643,1.3741995 C21.2639792,1.15128819 21.1414216,0.939915498 20.9853705,0.742299842 C20.8228232,0.536457697 20.6598267,0.387910715 20.5389812,0.299228289 C20.3163534,0.135853007 20.0034361,0.183886647 19.8400608,0.406514426 C19.6766855,0.629142206 19.7247192,0.942059515 19.9473469,1.1054348 C20.0014026,1.14510354 20.1007579,1.23565103 20.2005625,1.36203879 C20.2822343,1.46546417 20.34468,1.56959982 20.3856584,1.67419071 Z M20.9635984,3.91739523 C20.6274915,3.54446511 20.1330691,3.28976077 19.3751348,3.08863229 C19.3796345,3.08086715 19.3842406,3.07310773 19.3889541,3.06536204 C19.6314178,2.66692725 20.0266479,2.52210702 20.7916724,2.78972714 C21.2291649,3.08237094 21.3057611,3.29645494 20.9635984,3.91739523 Z M19.8204521,6.83632343 C19.7736693,6.90498224 19.7273839,6.97444465 19.6817183,7.04463368 C19.5840183,7.19480074 19.4916699,7.3444059 19.405186,7.49321607 C19.1329937,7.1429259 18.7181532,6.90293055 18.0315606,6.55166958 C17.4943033,6.27680854 16.9263346,6.08769749 16.3559771,5.96805897 C16.4772159,5.73503863 16.5937703,5.49935773 16.7051209,5.26372773 C16.7508408,5.16697941 16.7928317,5.07640469 16.8309076,4.99288859 C16.939934,5.01881327 17.1059237,5.06479119 17.3117226,5.13323059 C17.7301765,5.27238939 18.1483049,5.4530361 18.5350246,5.67782043 C19.0952843,6.00347645 19.5342776,6.38941915 19.8204521,6.83632343 Z M20.4476898,5.9940213 C20.5231079,5.90087369 20.5889413,5.8221599 20.6427874,5.7594647 C20.632834,5.70856946 20.6211542,5.64822021 20.6060242,5.56991759 C20.4046582,4.53916626 20.1581797,4.26374908 18.7193464,3.96021671 C18.6125526,3.98318596 18.4558465,4.02491655 18.2635285,4.09024428 C18.1207561,4.13874206 17.9779598,4.19418465 17.8363177,4.25691885 C18.245534,4.40516833 18.6519328,4.58911449 19.037557,4.81326204 C19.6059316,5.1436349 20.0850109,5.53491642 20.4476898,5.9940213 Z M18.9153723,8.48535361 C18.8706449,8.59755408 18.8301779,8.70895316 18.7942139,8.81944068 C18.7158939,9.06005308 18.6602646,9.2937348 18.6284893,9.51888191 C18.5638865,9.58753033 18.5016571,9.65375742 18.4606663,9.6977939 C18.0871061,9.21324704 17.5642676,8.79110917 16.9287836,8.42134484 C16.485554,8.16344618 16.014153,7.94707472 15.5430777,7.76943881 C15.4642641,7.73971932 15.3901308,7.71277253 15.3213043,7.68856737 C15.4937644,7.44601037 15.665827,7.1808345 15.8380232,6.89489676 C16.3737626,6.999912 17.1017285,7.19923691 17.5761043,7.4419277 C18.176453,7.74906626 18.5978434,8.04412627 18.9153723,8.48535361 Z M17.5494676,10.1655467 C16.7273062,10.2986819 15.6631053,10.0373925 15.3289506,9.45926684 C15.2922291,9.20670361 15.2678015,8.9636776 15.2552002,8.7298929 C15.6559945,8.88441693 16.0550619,9.06992222 16.4258614,9.28567654 C16.888497,9.55486686 17.2698448,9.84998589 17.5494676,10.1655467 Z M14.9880708,6.367866 C14.3004619,7.51193389 13.620178,8.25769783 13.0922158,8.39541486 C12.9070482,8.44371515 12.7501366,8.41260851 12.5781671,8.28106152 C12.5794284,8.27023877 12.5306159,8.20011145 12.4963892,8.13199301 C12.3079344,7.75692718 12.5614885,7.26281222 13.19763,6.71623522 C13.3852495,6.55503131 13.58836,6.40559737 13.7915265,6.27284671 C13.9124691,6.19382185 14.0046149,6.13903116 14.0529094,6.11244464 L15.5246268,5.39842536 C15.3546785,5.73037064 15.175055,6.0567551 14.9880708,6.367866 Z M21.3298965,9.18900427 C21.3302787,9.19569715 21.3402428,9.26508943 21.3505169,9.36143471 C21.3838261,9.67379443 21.3904541,10.0013039 21.3547012,10.2980404 C21.2624378,11.0637949 21.0053975,11.2989756 20.2693968,11.0415028 C19.593883,10.6970706 19.4367084,10.0764125 19.7451073,9.12895931 C19.9006609,8.65107256 20.1696222,8.12840962 20.5199288,7.58998058 C20.626336,7.42643027 20.7367994,7.26666422 20.8492421,7.11217465 L21.3298965,9.18900427 Z M17.4333859,12.4301779 C17.5383473,12.564102 17.6953203,12.8276529 17.8184873,13.1752582 C17.9107145,13.4355442 18.1964828,13.5717827 18.4567687,13.4795556 C18.7170546,13.3873285 18.8532932,13.1015601 18.7610661,12.8412742 C18.597147,12.3786573 18.3869612,12.0257643 18.2204592,11.8133184 C18.0501182,11.5959741 17.7358371,11.5578705 17.5184928,11.7282115 C17.3011485,11.8985526 17.2630449,12.2128336 17.4333859,12.4301779 Z M18.2069266,14.7039588 C18.286249,14.9534363 18.3256637,15.2291597 18.320449,15.5345043 C18.3157337,15.8106064 18.5357362,16.0382539 18.8118383,16.0429692 C19.0879405,16.0476845 19.3155879,15.827682 19.3203032,15.5515799 C19.3273522,15.1388275 19.2724824,14.7549886 19.1599151,14.4009522 C19.0762421,14.1377917 18.7950781,13.9922883 18.5319176,14.0759613 C18.2687571,14.1596342 18.1232537,14.4407983 18.2069266,14.7039588 Z M17.8935975,17.2344723 C17.7548489,17.4928449 17.5874028,17.7015075 17.3877354,17.8696476 C17.1765105,18.0475202 17.1494732,18.362946 17.3273459,18.5741709 C17.5052185,18.7853957 17.8206443,18.812433 18.0318692,18.6345604 C18.3297254,18.3837354 18.5769231,18.0756906 18.7746019,17.7075805 C18.9052471,17.4642978 18.8139364,17.1611694 18.5706538,17.0305242 C18.3273712,16.899879 18.0242427,16.9911896 17.8935975,17.2344723 Z M15.752974,18.4691225 C15.4721609,18.5019277 15.1604573,18.5189263 14.8086102,18.5216161 C14.5324759,18.523727 14.3103361,18.7492893 14.312447,19.0254236 C14.3145579,19.3015579 14.5401203,19.5236978 14.8162546,19.5215868 C15.2022256,19.5186362 15.549429,19.4997017 15.8690071,19.4623679 C16.1432843,19.4303262 16.3396549,19.1820058 16.3076133,18.9077286 C16.2755716,18.6334515 16.0272512,18.4370809 15.752974,18.4691225 Z M9.94487383,18.1607352 C9.64262643,18.0900734 9.35014938,17.9960951 9.06925144,17.8802716 C8.81395974,17.7750065 8.52167064,17.896627 8.41640546,18.1519187 C8.31114029,18.4072104 8.43276082,18.6994995 8.68805252,18.8047647 C9.01856446,18.9410456 9.36238086,19.0515202 9.71722435,19.1344784 C9.9861161,19.197342 10.255057,19.0303233 10.3179207,18.7614315 C10.3807843,18.4925398 10.2137656,18.2235989 9.94487383,18.1607352 Z M7.46958194,16.8703263 C7.24045699,16.6613839 7.03470532,16.4363027 6.85615081,16.2004653 C6.68946544,15.9803049 6.37586499,15.9369548 6.15570459,16.1036402 C5.9355442,16.2703256 5.89219411,16.583926 6.05887947,16.8040864 C6.27453015,17.0889209 6.5216415,17.3592474 6.7957676,17.609227 C6.9998094,17.7952957 7.31605643,17.7807256 7.50212512,17.5766838 C7.68819381,17.372642 7.67362373,17.056395 7.46958194,16.8703263 Z M6.12831272,14.5734325 C6.08802191,14.2848996 6.10283026,14.0176312 6.1705441,13.7826772 C6.24701594,13.5173347 6.09390597,13.2402394 5.82856342,13.1637675 C5.56322087,13.0872957 5.28612556,13.2404057 5.20965372,13.5057482 C5.10151816,13.8809578 5.07890489,14.2890932 5.13792211,14.7117309 C5.17611215,14.9852197 5.42877778,15.1759671 5.7022666,15.137777 C5.97575541,15.099587 6.16650276,14.8469214 6.12831272,14.5734325 Z M7.19936378,12.8245149 C7.44475584,12.7660572 7.72810007,12.7503337 8.0353123,12.7789922 C8.31026093,12.8046409 8.55394328,12.6025435 8.57959206,12.3275948 C8.60524083,12.0526462 8.40314337,11.8089639 8.12819473,11.7833151 C7.71678888,11.7449368 7.32458498,11.7667012 6.96762681,11.8517364 C6.69900145,11.9157288 6.53311365,12.1853688 6.59710605,12.4539941 C6.66109845,12.7226195 6.93073842,12.8885073 7.19936378,12.8245149 Z M9.77081663,13.3412016 C10.0378906,13.4893943 10.2901655,13.6612127 10.5197536,13.8520296 C10.7321223,14.0285349 11.047367,13.9994619 11.2238724,13.7870932 C11.4003777,13.5747245 11.3713047,13.2594798 11.158936,13.0829744 C10.8808611,12.8518589 10.5769824,12.6448943 10.2560048,12.4667918 C10.0145432,12.3328108 9.7101868,12.419941 9.5762058,12.6614026 C9.4422248,12.9028642 9.52935503,13.2072206 9.77081663,13.3412016 Z M11.6458473,15.3808602 C11.744144,15.6500127 11.8003267,15.9272657 11.8122489,16.2109198 C11.8238451,16.4868186 12.0569059,16.7010782 12.3328047,16.6894819 C12.6087034,16.6778857 12.822963,16.444825 12.8113668,16.1689262 C12.7950667,15.7811124 12.7183348,15.4024527 12.5851657,15.0378136 C12.4904361,14.778428 12.2033689,14.644948 11.9439833,14.7396777 C11.6845977,14.8344074 11.5511176,15.1214745 11.6458473,15.3808602 Z M9.56093841,19.9018519 C9.3121918,20.0825154 9.04676823,20.2534994 8.76566374,20.414967 C8.52621253,20.5525087 8.44359858,20.8581219 8.58114032,21.0975731 C8.71868206,21.3370243 9.02429523,21.4196382 9.26374644,21.2820965 C9.57503416,21.1032916 9.87034059,20.9130573 10.1485928,20.710964 C10.3720229,20.5486877 10.4215979,20.2360109 10.2593216,20.0125808 C10.0970454,19.7891506 9.78436855,19.7395756 9.56093841,19.9018519 Z M7.01872029,21.2258332 C6.72073685,21.3372223 6.41450415,21.4402331 6.10123583,21.5351434 C5.83695627,21.6152117 5.68762351,21.8943607 5.76769177,22.1586403 C5.84776003,22.4229199 6.12690909,22.5722526 6.39118865,22.4921844 C6.72428783,22.391266 7.05056236,22.2815134 7.36886607,22.1625284 C7.62752731,22.0658383 7.75883087,21.7777691 7.66214079,21.5191079 C7.5654507,21.2604466 7.27738153,21.1291431 7.01872029,21.2258332 Z M4.16396062,22.0050563 C3.83477698,22.0667797 3.51279498,22.1186014 3.20114288,22.1613618 C2.92756362,22.1988985 2.73621326,22.4511077 2.7737499,22.724687 C2.81128654,22.9982663 3.06349581,23.1896166 3.33707507,23.15208 C3.66451072,23.1071539 4.00257726,23.0527435 4.34825347,22.9879277 C4.6196659,22.9370366 4.7984338,22.675758 4.74754273,22.4043455 C4.69665167,22.1329331 4.43537306,21.9541652 4.16396062,22.0050563 Z" />
        </g>
    </g>
</svg>
